<svg xmlns="http://www.w3.org/2000/svg" xmlns:xlink="http://www.w3.org/1999/xlink" width="65.47000122070312" height="49.959991455078125" viewBox="0 0 65.47000122070312 49.959991455078125" fill="none"><path id="拼合图形" fill-rule="evenodd" style="fill:#E7ECF0" opacity="1" d="M1.72,3.45c-0.95,0 -1.72,-0.77 -1.72,-1.72v-0.01c0,-0.95 0.77,-1.72 1.72,-1.72h62.03c0.95,0 1.72,0.77 1.72,1.72v0.01c0,0.95 -0.77,1.72 -1.72,1.72zM1.72,27.57c-0.95,0 -1.72,-0.77 -1.72,-1.72v-0.01c0,-0.95 0.77,-1.72 1.72,-1.72h62.03c0.95,0 1.72,0.77 1.72,1.72v0.01c0,0.95 -0.77,1.72 -1.72,1.72zM63.75,49.96h-62.03c-0.95,0 -1.72,-0.77 -1.72,-1.72v-0.01c0,-0.95 0.77,-1.72 1.72,-1.72h62.03c0.95,0 1.72,0.77 1.72,1.72v0.01c0,0.95 -0.77,1.72 -1.72,1.72z"></path></svg>